<svg xmlns="http://www.w3.org/2000/svg" viewBox="0 0 900 900" role="img" aria-label="Placeholder acuarela para foto familiar">
  <defs>
    <linearGradient id="wash" x1="0" x2="1" y1="0" y2="1">
      <stop offset="0%" stop-color="#fffdf8"/>
      <stop offset="55%" stop-color="#faf5ec"/>
      <stop offset="100%" stop-color="#e8d6bf"/>
    </linearGradient>
  </defs>
  <rect width="900" height="900" fill="url(#wash)"/>
  <circle cx="450" cy="420" r="288" fill="#ffffff" opacity=".42"/>
  <g fill="#c8a982" opacity=".44">
    <circle cx="357" cy="320" r="70"/>
    <circle cx="543" cy="320" r="70"/>
    <path d="M250 668c16-143 101-218 205-218s189 75 205 218z"/>
    <path d="M357 562c42-56 144-56 186 0-16 69-59 108-93 108s-77-39-93-108z" fill="#ffffff" opacity=".35"/>
  </g>
  <path d="M254 606c120-111 272-111 392 0" fill="none" stroke="#6f4e37" stroke-width="12" stroke-linecap="round" opacity=".26"/>
  <path d="M451 268l18 55 58 1-47 34 17 56-46-34-47 34 17-56-47-34 58-1z" fill="#b59673" opacity=".38"/>
  <g fill="none" stroke="#b59673" stroke-width="10" stroke-linecap="round" opacity=".38">
    <path d="M185 259c44-40 93-57 148-51"/>
    <path d="M567 208c56-6 105 11 148 51"/>
    <path d="M241 709c123 50 295 50 418 0"/>
  </g>
  <text x="450" y="772" text-anchor="middle" font-family="Georgia, serif" font-size="54" fill="#6f4e37" opacity=".72">Familia</text>
</svg>
