<svg xmlns="http://www.w3.org/2000/svg" viewBox="0 0 900 900" role="img" aria-label="Placeholder acuarela para sesión de embarazo">
  <defs>
    <radialGradient id="bg" cx="52%" cy="35%" r="72%">
      <stop offset="0%" stop-color="#ffffff"/>
      <stop offset="58%" stop-color="#faf5ec"/>
      <stop offset="100%" stop-color="#e8d6bf"/>
    </radialGradient>
    <filter id="soft">
      <feGaussianBlur stdDeviation="1.5"/>
    </filter>
  </defs>
  <rect width="900" height="900" fill="url(#bg)"/>
  <circle cx="451" cy="413" r="284" fill="#ffffff" opacity=".46"/>
  <path d="M422 239c-62 39-72 99-33 165 19 33 23 61 5 95-39 74 7 166 102 176 117 12 183-120 107-209-21-25-34-56-34-89 0-116-71-188-147-138z" fill="#c8a982" opacity=".48" filter="url(#soft)"/>
  <path d="M476 212c62 49 78 121 49 213 74 18 123 88 110 165-21 124-178 156-274 73" fill="none" stroke="#6f4e37" stroke-width="13" stroke-linecap="round" opacity=".35"/>
  <path d="M287 656c97 48 227 61 338 28" fill="none" stroke="#b59673" stroke-width="10" stroke-linecap="round" opacity=".45"/>
  <g fill="#b59673" opacity=".58">
    <circle cx="234" cy="302" r="15"/>
    <circle cx="694" cy="282" r="10"/>
    <circle cx="704" cy="631" r="13"/>
    <path d="M202 552l18 31 36 7-25 26 4 36-33-16-33 16 4-36-25-26 36-7z"/>
    <path d="M656 168l13 25 28 5-20 20 4 28-25-13-25 13 5-28-20-20 28-5z"/>
  </g>
  <text x="450" y="772" text-anchor="middle" font-family="Georgia, serif" font-size="48" fill="#6f4e37" opacity=".72">Sesión</text>
</svg>
